<?xml version="1.0" encoding="UTF-8"?>
<svg version="1.1" xmlns="http://www.w3.org/2000/svg" width="512" height="512">
<path d="M0 0 C22.06591556 15.83642239 27.27956245 46.67001581 33.546875 71.3359375 C34.10051304 73.48991135 34.65481053 75.6437158 35.2097168 77.79736328 C38.22221808 89.51084254 41.18906983 101.23591297 44.15625 112.9609375 C45.06914273 116.56680383 45.98223311 120.17261987 46.8956604 123.77835083 C47.49424518 126.14129217 48.09253436 128.50430841 48.69052124 130.86740112 C52.98570612 147.82429847 57.43055424 164.71202628 62.484375 181.4609375 C63.40549072 181.47552002 64.32660645 181.49010254 65.27563477 181.50512695 C68.77063527 181.56704152 72.26495674 181.64133553 75.75952148 181.72338867 C77.25747137 181.75616482 78.75553081 181.78433507 80.25366211 181.80737305 C98.35911053 182.09302463 116.74617843 183.93857277 130.35546875 197.1328125 C137.55666633 205.00788362 140.02157415 212.98787812 139.80078125 223.5859375 C138.96327698 231.19585288 136.11215441 238.20018718 130.484375 243.4609375 C120.50795627 250.8409977 109.8951406 251.65276007 97.859375 253.0859375 C96.75980469 253.22 95.66023438 253.3540625 94.52734375 253.4921875 C91.84674842 253.81852085 89.16578402 254.14137144 86.484375 254.4609375 C111.3857175 325.11493556 111.3857175 325.11493556 156.484375 382.4609375 C163.2790538 387.85236742 168.82099636 393.62318836 170.484375 402.4609375 C171.29984753 412.41911172 169.69823566 420.72527738 163.34375 428.60546875 C151.53909683 440.38532223 134.20243728 439.69714648 118.671875 439.7109375 C117.64450226 439.71194962 117.64450226 439.71194962 116.59637451 439.71298218 C82.2691274 439.65947556 49.67035675 430.10061601 24.62890625 405.67578125 C-0.27701589 380.07292086 -9.69749693 341.5627274 -20.52929688 308.4675293 C-21.51524014 305.46211065 -22.51312467 302.46086927 -23.515625 299.4609375 C-62.36026573 318.1589602 -93.72419615 341.83391747 -122.81103516 373.60791016 C-124.4110426 375.34724795 -126.0275032 377.06903835 -127.65234375 378.78515625 C-134.73056392 386.29475902 -140.54199676 394.05178011 -145.74487305 402.94555664 C-155.83815121 420.14907934 -168.54424738 433.6352848 -188.359375 439.26953125 C-202.97668307 442.31480376 -218.83447103 440.76431871 -231.515625 432.4609375 C-235.06195118 429.65760091 -238.3150502 426.6503992 -241.515625 423.4609375 C-242.093125 422.90664063 -242.670625 422.35234375 -243.265625 421.78125 C-252.57133304 412.0393369 -256.33708343 397.28403362 -256.953125 384.1484375 C-254.25616471 309.82021185 -190.86331695 215.40360279 -157.03027344 151.34179688 C-155.49164972 148.41533654 -153.97356127 145.47903721 -152.4609375 142.5390625 C-146.97823232 131.90054149 -141.30119327 121.40373323 -135.36645508 111.01025391 C-132.20671614 105.47353703 -129.11635065 99.90802423 -126.09716797 94.29345703 C-79.32102593 7.3428343 -79.32102593 7.3428343 -37.515625 -5.5390625 C-24.71044599 -9.08508654 -11.19481762 -6.84900333 0 0 Z " fill="#010101" transform="translate(298.515625,39.5390625)"/>
<path d="M0 0 C22.06591556 15.83642239 27.27956245 46.67001581 33.546875 71.3359375 C34.10051304 73.48991135 34.65481053 75.6437158 35.2097168 77.79736328 C38.22221808 89.51084254 41.18906983 101.23591297 44.15625 112.9609375 C45.06914273 116.56680383 45.98223311 120.17261987 46.8956604 123.77835083 C47.49424518 126.14129217 48.09253436 128.50430841 48.69052124 130.86740112 C52.98570612 147.82429847 57.43055424 164.71202628 62.484375 181.4609375 C63.40549072 181.47552002 64.32660645 181.49010254 65.27563477 181.50512695 C68.77063527 181.56704152 72.26495674 181.64133553 75.75952148 181.72338867 C77.25747137 181.75616482 78.75553081 181.78433507 80.25366211 181.80737305 C98.35911053 182.09302463 116.74617843 183.93857277 130.35546875 197.1328125 C137.55666633 205.00788362 140.02157415 212.98787812 139.80078125 223.5859375 C138.96327698 231.19585288 136.11215441 238.20018718 130.484375 243.4609375 C120.50795627 250.8409977 109.8951406 251.65276007 97.859375 253.0859375 C96.75980469 253.22 95.66023438 253.3540625 94.52734375 253.4921875 C91.84674842 253.81852085 89.16578402 254.14137144 86.484375 254.4609375 C111.3857175 325.11493556 111.3857175 325.11493556 156.484375 382.4609375 C163.2790538 387.85236742 168.82099636 393.62318836 170.484375 402.4609375 C171.29984753 412.41911172 169.69823566 420.72527738 163.34375 428.60546875 C151.53909683 440.38532223 134.20243728 439.69714648 118.671875 439.7109375 C117.64450226 439.71194962 117.64450226 439.71194962 116.59637451 439.71298218 C82.2691274 439.65947556 49.67035675 430.10061601 24.62890625 405.67578125 C-0.27701589 380.07292086 -9.69749693 341.5627274 -20.52929688 308.4675293 C-21.51524014 305.46211065 -22.51312467 302.46086927 -23.515625 299.4609375 C-62.36026573 318.1589602 -93.72419615 341.83391747 -122.81103516 373.60791016 C-124.4110426 375.34724795 -126.0275032 377.06903835 -127.65234375 378.78515625 C-134.73056392 386.29475902 -140.54199676 394.05178011 -145.74487305 402.94555664 C-155.83815121 420.14907934 -168.54424738 433.6352848 -188.359375 439.26953125 C-202.97668307 442.31480376 -218.83447103 440.76431871 -231.515625 432.4609375 C-235.06195118 429.65760091 -238.3150502 426.6503992 -241.515625 423.4609375 C-242.093125 422.90664063 -242.670625 422.35234375 -243.265625 421.78125 C-252.57133304 412.0393369 -256.33708343 397.28403362 -256.953125 384.1484375 C-254.25616471 309.82021185 -190.86331695 215.40360279 -157.03027344 151.34179688 C-155.49164972 148.41533654 -153.97356127 145.47903721 -152.4609375 142.5390625 C-146.97823232 131.90054149 -141.30119327 121.40373323 -135.36645508 111.01025391 C-132.20671614 105.47353703 -129.11635065 99.90802423 -126.09716797 94.29345703 C-79.32102593 7.3428343 -79.32102593 7.3428343 -37.515625 -5.5390625 C-24.71044599 -9.08508654 -11.19481762 -6.84900333 0 0 Z M-50.515625 36.4609375 C-51.19109375 36.95722656 -51.8665625 37.45351562 -52.5625 37.96484375 C-96.81385523 72.98192857 -122.40092263 148.95397072 -147.515625 198.4609375 C-147.91559692 199.24885681 -148.31556885 200.03677612 -148.72766113 200.84857178 C-157.63406646 218.40106128 -166.28793798 236.02890717 -174.4921875 253.921875 C-176.85010537 259.05399069 -179.2890625 264.13996086 -181.77026367 269.21337891 C-215.77059006 329.58073954 -215.77059006 329.58073954 -225.515625 394.0234375 C-223.23387383 400.05454506 -219.03000214 405.24244291 -213.56640625 408.69140625 C-206.43225679 411.77370612 -197.9791633 411.42845748 -190.796875 408.671875 C-180.70853132 403.31676106 -175.14287953 393.94400424 -169.515625 384.4609375 C-164.60512297 376.236933 -159.0870351 369.42834463 -152.515625 362.4609375 C-151.38291078 361.1760304 -150.25715889 359.88492936 -149.140625 358.5859375 C-141.47591989 349.80086946 -133.49270789 341.34474065 -125.265625 333.0859375 C-124.6166626 332.43238281 -123.9677002 331.77882813 -123.29907227 331.10546875 C-94.06961348 301.96873125 -57.68011794 280.68311811 -19.515625 265.4609375 C-19.515625 265.1309375 -19.515625 264.8009375 -19.515625 264.4609375 C-39.7062839 263.06526983 -58.08964822 269.89136229 -76.515625 277.4609375 C-54.3867061 265.07762308 -30.82118639 254.7626082 -6.515625 247.4609375 C-6.391875 248.16992188 -6.268125 248.87890625 -6.140625 249.609375 C-3.85614608 261.40299743 -0.14137255 272.72890426 3.45996094 284.17285156 C4.3991219 287.18729862 5.31265612 290.20753447 6.2109375 293.234375 C22.48272381 354.35697896 22.48272381 354.35697896 64.29101562 398.46582031 C81.20446808 407.42688804 98.1718652 409.64832408 117.11816406 409.64624023 C119.37583556 409.64845364 121.63303778 409.66674992 123.890625 409.68554688 C125.33593585 409.6884769 126.78124899 409.69046431 128.2265625 409.69140625 C129.5244873 409.69551514 130.82241211 409.69962402 132.15966797 409.70385742 C135.23851843 409.47890103 136.91823739 409.09647548 139.484375 407.4609375 C138.03149839 406.12166029 136.57190241 404.78966903 135.109375 403.4609375 C134.29726563 402.7184375 133.48515625 401.9759375 132.6484375 401.2109375 C130.68903508 399.25133937 130.68903508 399.25133937 128.484375 399.4609375 C128.08412109 398.57728516 128.08412109 398.57728516 127.67578125 397.67578125 C126.46296126 395.421129 125.17221174 393.88135995 123.421875 392.0234375 C114.7047298 382.24146504 107.98949618 370.78409806 101.484375 359.4609375 C101.04786621 358.70828613 100.61135742 357.95563477 100.16162109 357.18017578 C78.23339682 319.11710994 63.13909787 277.37645902 48.46142578 236.11425781 C47.56634404 233.5327151 47.56634404 233.5327151 46.484375 231.4609375 C47.56332031 231.34363281 48.64226562 231.22632813 49.75390625 231.10546875 C55.28454187 230.41368497 60.71185913 229.25315384 66.171875 228.1484375 C80.53545613 225.30219312 94.96371537 223.31896417 109.484375 221.4609375 C108.88731373 217.98050719 108.65642679 217.58810622 105.609375 215.3359375 C96.72928435 210.74533473 86.27663753 211.1732394 76.546875 211.2734375 C74.76893555 211.2744043 74.76893555 211.2744043 72.95507812 211.27539062 C66.36674918 211.30791666 59.88396486 211.63024655 53.32592773 212.24487305 C49.04297505 212.57053789 44.77646407 212.54639945 40.484375 212.4609375 C40.1171875 211.17578125 39.75 209.890625 39.3828125 208.60546875 C39.14304687 207.76636963 38.90328125 206.92727051 38.65625 206.06274414 C38.11701617 204.17526053 37.57795866 202.28772653 37.0390625 200.40014648 C35.68369731 195.65362309 34.32621832 190.90774411 32.9609375 186.1640625 C29.35587271 173.62615705 25.86204116 161.06202305 22.484375 148.4609375 C22.31399719 147.82667847 22.14361938 147.19241943 21.96807861 146.53894043 C16.93269873 127.78847205 12.0991393 109.00401573 7.56118774 90.12661743 C4.33977932 76.74328125 1.11525151 63.38504277 -2.890625 50.2109375 C-3.18791504 49.21932617 -3.48520508 48.22771484 -3.79150391 47.20605469 C-6.52560303 38.55546909 -10.44485313 28.72876826 -18.328125 23.6484375 C-30.51977408 19.10645059 -41.3210026 29.33933579 -50.515625 36.4609375 Z " fill="#FDFDFD" transform="translate(298.515625,39.5390625)"/>
<path d="M0 0 C0.33 0 0.66 0 1 0 C1.98322785 4.01985045 2.96134641 8.04092592 3.9375 12.0625 C4.09172424 12.69757477 4.24594849 13.33264954 4.40484619 13.98696899 C6.376146 22.11697755 8.29989731 30.25610935 10.15234375 38.4140625 C10.89293978 41.6719409 11.63365275 44.92979245 12.375 48.1875 C12.65304474 49.40948593 12.65304474 49.40948593 12.93670654 50.65615845 C16.07377852 64.39835094 19.54261397 78.03258263 23.25732422 91.62963867 C23.53416801 92.649058 23.53416801 92.649058 23.81660461 93.68907166 C24.31287632 95.51281277 24.81456035 97.33507869 25.31665039 99.15722656 C26 102 26 102 26 105 C23.93799927 105.52280648 21.87533316 106.04298775 19.8125 106.5625 C19.11833984 106.73740967 18.42417969 106.91231934 17.70898438 107.0925293 C12.92230455 108.29071403 8.12721426 109.44705109 3.32421875 110.578125 C-11.40441736 114.05787994 -25.95847492 117.86961697 -40.44873047 122.23632812 C-44.12322577 123.33621533 -47.81000689 124.39099771 -51.5 125.4375 C-52.5828125 125.74558594 -53.665625 126.05367188 -54.78125 126.37109375 C-55.5134375 126.57863281 -56.245625 126.78617187 -57 127 C-56.3184628 122.24324379 -54.49536956 118.19688816 -52.5625 113.84375 C-52.03471199 112.64017097 -52.03471199 112.64017097 -51.4962616 111.41227722 C-50.33633397 108.77239346 -49.16855729 106.13607402 -48 103.5 C-47.18523958 101.65342956 -46.37054315 99.80683088 -45.5559082 97.96020508 C-38.19248074 81.30449201 -30.6219146 64.74625449 -22.95898438 48.2265625 C-21.37359299 44.80844145 -19.79461477 41.38741641 -18.21862793 37.96495056 C-12.34393208 25.20822368 -6.42093118 12.49268786 0 0 Z " fill="#FCFCFC" transform="translate(259,157)"/>
<path d="M0 0 C0.66 0.33 1.32 0.66 2 1 C-0.39542601 4.59313902 -2.05574396 5.1381646 -6 6.75 C-7.0725 7.19859375 -8.145 7.6471875 -9.25 8.109375 C-12 9 -12 9 -14 8 C-11.7136988 6.63597957 -9.42178251 5.28365726 -7.125 3.9375 C-6.47402344 3.54755859 -5.82304687 3.15761719 -5.15234375 2.75585938 C-3.46934275 1.77555467 -1.73703801 0.88101568 0 0 Z " fill="#D7D7D7" transform="translate(235,309)"/>
</svg>
